<mxfile host="app.diagrams.net" modified="2024-05-29T15:51:08.423Z" agent="Mozilla/5.0 (Windows NT 10.0; Win64; x64) AppleWebKit/537.36 (KHTML, like Gecko) Chrome/125.0.0.0 Safari/537.36" etag="TK-u6iHutU2mz8AWmgh-" version="24.4.8" type="github">
  <diagram name="PÃ¡gina-1" id="mGCjM0xPOUWwRISaZ-gU">
    <mxGraphModel dx="1861" dy="647" grid="0" gridSize="10" guides="1" tooltips="1" connect="1" arrows="1" fold="1" page="0" pageScale="1" pageWidth="827" pageHeight="1169" math="0" shadow="0">
      <root>
        <mxCell id="0" />
        <mxCell id="1" parent="0" />
        <mxCell id="nnxOR7MUioTcY6HnBUIz-1" value="&lt;p style=&quot;margin:0px;margin-top:4px;text-align:center;&quot;&gt;&amp;lt;&amp;lt;requirement&amp;gt;&amp;gt;&lt;br&gt;&lt;b&gt;Register Patient&lt;/b&gt;&lt;/p&gt;&lt;hr&gt;&lt;p&gt;&lt;/p&gt;&lt;p style=&quot;margin:0px;margin-left:8px;text-align:left;&quot;&gt;text=&quot;The system should register a new patient&quot;&lt;br&gt;Id=&quot;1&quot;&lt;/p&gt;" style="shape=rect;overflow=fill;html=1;whiteSpace=wrap;align=center;" parent="1" vertex="1">
          <mxGeometry x="359" y="40" width="200" height="100" as="geometry" />
        </mxCell>
        <mxCell id="nnxOR7MUioTcY6HnBUIz-3" value="&lt;p style=&quot;margin:0px;margin-top:4px;text-align:center;&quot;&gt;&amp;lt;&amp;lt;requirement&amp;gt;&amp;gt;&lt;br&gt;&lt;b&gt;Documents Provided&lt;/b&gt;&lt;/p&gt;&lt;hr&gt;&lt;p&gt;&lt;/p&gt;&lt;p style=&quot;margin:0px;margin-left:8px;text-align:left;&quot;&gt;text=&quot;The system should get douments provided&quot;&lt;br&gt;Id=&quot;1.1&quot;&lt;/p&gt;" style="shape=rect;overflow=fill;html=1;whiteSpace=wrap;align=center;" parent="1" vertex="1">
          <mxGeometry x="49" y="190" width="200" height="100" as="geometry" />
        </mxCell>
        <mxCell id="nnxOR7MUioTcY6HnBUIz-4" value="&lt;p style=&quot;margin:0px;margin-top:4px;text-align:center;&quot;&gt;&amp;lt;&amp;lt;requirement&amp;gt;&amp;gt;&lt;br&gt;&lt;b&gt;Documents Validated&lt;/b&gt;&lt;/p&gt;&lt;hr&gt;&lt;p&gt;&lt;/p&gt;&lt;p style=&quot;margin:0px;margin-left:8px;text-align:left;&quot;&gt;text=&quot;The system should validate the documents&quot;&lt;br&gt;Id=&quot;1.2&quot;&lt;/p&gt;" style="shape=rect;overflow=fill;html=1;whiteSpace=wrap;align=center;" parent="1" vertex="1">
          <mxGeometry x="359" y="190" width="200" height="100" as="geometry" />
        </mxCell>
        <mxCell id="nnxOR7MUioTcY6HnBUIz-6" value="&lt;p style=&quot;margin:0px;margin-top:4px;text-align:center;&quot;&gt;&amp;lt;&amp;lt;requirement&amp;gt;&amp;gt;&lt;br&gt;&lt;b&gt;Documents Ok&lt;/b&gt;&lt;/p&gt;&lt;hr&gt;&lt;p&gt;&lt;/p&gt;&lt;p style=&quot;margin:0px;margin-left:8px;text-align:left;&quot;&gt;text=&quot;The system verifys that documents are ok&quot;&lt;br&gt;Id=&quot;1.2.1&quot;&lt;/p&gt;" style="shape=rect;overflow=fill;html=1;whiteSpace=wrap;align=center;" parent="1" vertex="1">
          <mxGeometry x="220" y="343" width="200" height="100" as="geometry" />
        </mxCell>
        <mxCell id="nnxOR7MUioTcY6HnBUIz-7" value="&lt;p style=&quot;margin:0px;margin-top:4px;text-align:center;&quot;&gt;&amp;lt;&amp;lt;requirement&amp;gt;&amp;gt;&lt;br&gt;&lt;b&gt;Notify patient if documents not ok&lt;/b&gt;&lt;/p&gt;&lt;hr&gt;&lt;p&gt;&lt;/p&gt;&lt;p style=&quot;margin:0px;margin-left:8px;text-align:left;&quot;&gt;text=&quot;&lt;span style=&quot;font-size: 11px; text-align: center; background-color: rgb(255, 255, 255);&quot;&gt;The system should notify the patent if the documents are not ok&lt;/span&gt;&quot;&lt;br&gt;Id=&quot;1.2.2&quot;&lt;/p&gt;" style="shape=rect;overflow=fill;html=1;whiteSpace=wrap;align=center;" parent="1" vertex="1">
          <mxGeometry x="450" y="343" width="200" height="100" as="geometry" />
        </mxCell>
        <mxCell id="nnxOR7MUioTcY6HnBUIz-8" value="&lt;p style=&quot;margin:0px;margin-top:4px;text-align:center;&quot;&gt;&amp;lt;&amp;lt;requirement&amp;gt;&amp;gt;&lt;br&gt;&lt;b&gt;Identity Check&lt;/b&gt;&lt;/p&gt;&lt;hr&gt;&lt;p&gt;&lt;/p&gt;&lt;p style=&quot;margin:0px;margin-left:8px;text-align:left;&quot;&gt;text=&quot;The system should validate if the ID is ok&quot;&lt;br&gt;Id=&quot;1.2.1.1&quot;&lt;/p&gt;" style="shape=rect;overflow=fill;html=1;whiteSpace=wrap;align=center;" parent="1" vertex="1">
          <mxGeometry x="220" y="485" width="200" height="100" as="geometry" />
        </mxCell>
        <mxCell id="nnxOR7MUioTcY6HnBUIz-9" value="&lt;p style=&quot;margin:0px;margin-top:4px;text-align:center;&quot;&gt;&amp;lt;&amp;lt;requirement&amp;gt;&amp;gt;&lt;br&gt;&lt;b&gt;Patient Registered&lt;/b&gt;&lt;/p&gt;&lt;hr&gt;&lt;p&gt;&lt;/p&gt;&lt;p style=&quot;margin:0px;margin-left:8px;text-align:left;&quot;&gt;text=&quot;The system should save the new patient in the data base&quot;&lt;br&gt;Id=&quot;1.3&quot;&lt;/p&gt;" style="shape=rect;overflow=fill;html=1;whiteSpace=wrap;align=center;" parent="1" vertex="1">
          <mxGeometry x="627" y="190" width="200" height="100" as="geometry" />
        </mxCell>
        <mxCell id="GlkqnVBeI32GuJ0cnk9J-12" style="rounded=0;orthogonalLoop=1;jettySize=auto;html=1;endArrow=none;endFill=0;strokeWidth=2;dashed=1;" parent="1" source="nnxOR7MUioTcY6HnBUIz-10" target="GlkqnVBeI32GuJ0cnk9J-11" edge="1">
          <mxGeometry relative="1" as="geometry" />
        </mxCell>
        <mxCell id="nnxOR7MUioTcY6HnBUIz-10" value="&lt;p style=&quot;margin:0px;margin-top:4px;text-align:center;&quot;&gt;&amp;lt;&amp;lt;requirement&amp;gt;&amp;gt;&lt;br&gt;&lt;b&gt;Patient Notified&lt;/b&gt;&lt;/p&gt;&lt;hr&gt;&lt;p&gt;&lt;/p&gt;&lt;p style=&quot;margin:0px;margin-left:8px;text-align:left;&quot;&gt;text=&quot;The system should notify the patient that the registration was successful&quot;&lt;br&gt;Id=&quot;1.4&quot;&lt;/p&gt;" style="shape=rect;overflow=fill;html=1;whiteSpace=wrap;align=center;" parent="1" vertex="1">
          <mxGeometry x="860" y="190" width="200" height="120" as="geometry" />
        </mxCell>
        <mxCell id="nnxOR7MUioTcY6HnBUIz-11" value="&lt;p style=&quot;margin:0px;margin-top:4px;text-align:center;&quot;&gt;&amp;lt;&amp;lt;requirement&amp;gt;&amp;gt;&lt;br&gt;&lt;span style=&quot;font-size: 11px; background-color: rgb(255, 255, 255);&quot;&gt;&lt;b&gt;Contact by phone and ask for new email&lt;/b&gt;&lt;/span&gt;&lt;br&gt;&lt;/p&gt;&lt;hr&gt;&lt;p&gt;&lt;/p&gt;&lt;p style=&quot;margin:0px;margin-left:8px;text-align:left;&quot;&gt;text=&quot;The system should contact the user by phone to request a new email&quot;&lt;br&gt;Id=&quot;1.5&quot;&lt;/p&gt;" style="shape=rect;overflow=fill;html=1;whiteSpace=wrap;align=center;" parent="1" vertex="1">
          <mxGeometry x="1101" y="190" width="225" height="100" as="geometry" />
        </mxCell>
        <mxCell id="nnxOR7MUioTcY6HnBUIz-16" value="&amp;lt;&amp;lt; &lt;b&gt;Block&amp;nbsp;&lt;/b&gt;&amp;gt;&amp;gt;&lt;br&gt;&lt;br&gt;&lt;b&gt;Human Resource Manager&lt;/b&gt;" style="html=1;align=center;verticalAlign=middle;dashed=0;whiteSpace=wrap;fillColor=#FFF2CC;" parent="1" vertex="1">
          <mxGeometry x="1469" y="215.5" width="160" height="55" as="geometry" />
        </mxCell>
        <mxCell id="GlkqnVBeI32GuJ0cnk9J-1" value="&amp;lt;&amp;lt; &lt;b&gt;Block &lt;/b&gt;&amp;gt;&amp;gt;&lt;div&gt;&lt;br&gt;&lt;b&gt;Documents&lt;/b&gt;&lt;/div&gt;" style="shape=rect;html=1;whiteSpace=wrap;align=center;verticalAlign=top;fillColor=#FFF2CC;" parent="1" vertex="1">
          <mxGeometry x="-194" y="155" width="120" height="60" as="geometry" />
        </mxCell>
        <mxCell id="GlkqnVBeI32GuJ0cnk9J-7" value="&amp;lt;&amp;lt; &lt;b&gt;Block &lt;/b&gt;&amp;gt;&amp;gt;&lt;div&gt;&lt;br&gt;&lt;b&gt;Email&lt;/b&gt;&lt;/div&gt;" style="shape=rect;html=1;whiteSpace=wrap;align=center;verticalAlign=top;fillColor=#FFF2CC;" parent="1" vertex="1">
          <mxGeometry x="1043" y="60" width="120" height="60" as="geometry" />
        </mxCell>
        <mxCell id="GlkqnVBeI32GuJ0cnk9J-8" value="&lt;font style=&quot;font-size: 12px;&quot;&gt;&lt;b&gt;&amp;lt;&amp;lt; Satisfy &amp;gt;&amp;gt;&lt;/b&gt;&lt;/font&gt;" style="edgeStyle=none;html=1;endArrow=open;endSize=12;dashed=1;verticalAlign=bottom;rounded=0;strokeWidth=2;" parent="1" source="GlkqnVBeI32GuJ0cnk9J-7" target="nnxOR7MUioTcY6HnBUIz-10" edge="1">
          <mxGeometry width="160" relative="1" as="geometry">
            <mxPoint x="1054" y="440.9999999999999" as="sourcePoint" />
            <mxPoint x="1214" y="440.9999999999999" as="targetPoint" />
          </mxGeometry>
        </mxCell>
        <mxCell id="GlkqnVBeI32GuJ0cnk9J-11" value="&lt;span style=&quot;background-color: initial;&quot;&gt;&lt;b&gt;&amp;lt;&amp;lt; Problem &amp;gt;&amp;gt;&lt;/b&gt;&lt;/span&gt;&lt;div&gt;&lt;div style=&quot;font-weight: bold; text-align: left;&quot;&gt;&lt;br&gt;&lt;/div&gt;&lt;div style=&quot;&quot;&gt;Wrong email provided&lt;/div&gt;&lt;/div&gt;" style="shape=note;size=15;align=center;spacingLeft=0;html=1;whiteSpace=wrap;verticalAlign=top;strokeWidth=2;" parent="1" vertex="1">
          <mxGeometry x="1137" y="351" width="173" height="65" as="geometry" />
        </mxCell>
        <mxCell id="GlkqnVBeI32GuJ0cnk9J-14" value="&lt;span style=&quot;background-color: initial;&quot;&gt;&lt;b&gt;&amp;lt;&amp;lt; Rationale &amp;gt;&amp;gt;&lt;/b&gt;&lt;/span&gt;&lt;div&gt;&lt;div style=&quot;font-weight: bold; text-align: left;&quot;&gt;&lt;br&gt;&lt;/div&gt;&lt;div style=&quot;&quot;&gt;Inserting a new and correct email&lt;/div&gt;&lt;/div&gt;" style="shape=note;size=15;align=center;spacingLeft=0;html=1;whiteSpace=wrap;verticalAlign=top;strokeWidth=2;" parent="1" vertex="1">
          <mxGeometry x="1357" y="351" width="173" height="65" as="geometry" />
        </mxCell>
        <mxCell id="GlkqnVBeI32GuJ0cnk9J-15" style="rounded=0;orthogonalLoop=1;jettySize=auto;html=1;endArrow=none;endFill=0;strokeWidth=2;dashed=1;" parent="1" source="nnxOR7MUioTcY6HnBUIz-11" target="GlkqnVBeI32GuJ0cnk9J-14" edge="1">
          <mxGeometry relative="1" as="geometry">
            <mxPoint x="992" y="323" as="sourcePoint" />
            <mxPoint x="1024" y="412" as="targetPoint" />
          </mxGeometry>
        </mxCell>
        <mxCell id="REUDDeqgJxIMgfKwqpik-3" value="&lt;font style=&quot;font-size: 12px;&quot;&gt;&lt;b&gt;&amp;lt;&amp;lt; Satisfy &amp;gt;&amp;gt;&lt;/b&gt;&lt;/font&gt;" style="edgeStyle=none;html=1;endArrow=open;endSize=12;dashed=1;verticalAlign=bottom;rounded=0;strokeWidth=2;" parent="1" source="REUDDeqgJxIMgfKwqpik-6" target="nnxOR7MUioTcY6HnBUIz-1" edge="1">
          <mxGeometry width="160" relative="1" as="geometry">
            <mxPoint x="74" y="90" as="sourcePoint" />
            <mxPoint x="600" y="215.9999999999999" as="targetPoint" />
          </mxGeometry>
        </mxCell>
        <mxCell id="REUDDeqgJxIMgfKwqpik-4" value="&amp;lt;&amp;lt; &lt;b&gt;Block &lt;/b&gt;&amp;gt;&amp;gt;&lt;div&gt;&lt;br&gt;&lt;b&gt;Patient Interface&lt;/b&gt;&lt;/div&gt;" style="shape=rect;html=1;whiteSpace=wrap;align=center;verticalAlign=top;fillColor=#FFF2CC;" parent="1" vertex="1">
          <mxGeometry x="-194" y="262" width="120" height="60" as="geometry" />
        </mxCell>
        <mxCell id="REUDDeqgJxIMgfKwqpik-6" value="&amp;lt;&amp;lt; &lt;b&gt;Block &lt;/b&gt;&amp;gt;&amp;gt;&lt;div&gt;&lt;br&gt;&lt;b&gt;Patient Controller&lt;/b&gt;&lt;/div&gt;&lt;div&gt;&lt;b&gt;&lt;br&gt;&lt;/b&gt;&lt;/div&gt;" style="shape=rect;html=1;whiteSpace=wrap;align=center;verticalAlign=top;fillColor=#FFF2CC;" parent="1" vertex="1">
          <mxGeometry x="68" y="60" width="120" height="60" as="geometry" />
        </mxCell>
        <mxCell id="REUDDeqgJxIMgfKwqpik-8" value="Register Patient" style="shape=ellipse;html=1;strokeWidth=3;fontStyle=1;whiteSpace=wrap;align=center;perimeter=ellipsePerimeter;fillColor=#CDA2BE;" parent="1" vertex="1">
          <mxGeometry x="745.9999999999998" y="58" width="120" height="60" as="geometry" />
        </mxCell>
        <mxCell id="REUDDeqgJxIMgfKwqpik-9" value="&lt;font style=&quot;font-size: 12px;&quot;&gt;&lt;b&gt;&amp;lt;&amp;lt; Refine &amp;gt;&amp;gt;&lt;/b&gt;&lt;/font&gt;" style="edgeStyle=none;html=1;endArrow=open;endSize=12;dashed=1;verticalAlign=bottom;rounded=0;strokeWidth=2;" parent="1" source="REUDDeqgJxIMgfKwqpik-10" target="nnxOR7MUioTcY6HnBUIz-10" edge="1">
          <mxGeometry x="-0.3191" width="160" relative="1" as="geometry">
            <mxPoint x="1084.2824591660637" y="520.7262731706442" as="sourcePoint" />
            <mxPoint x="1044.9995804195805" y="585" as="targetPoint" />
            <mxPoint as="offset" />
          </mxGeometry>
        </mxCell>
        <mxCell id="REUDDeqgJxIMgfKwqpik-10" value="Send email" style="shape=ellipse;html=1;strokeWidth=3;fontStyle=1;whiteSpace=wrap;align=center;perimeter=ellipsePerimeter;fillColor=#CDA2BE;" parent="1" vertex="1">
          <mxGeometry x="899.9999999999998" y="407" width="120" height="60" as="geometry" />
        </mxCell>
        <mxCell id="REUDDeqgJxIMgfKwqpik-11" value="&lt;font style=&quot;font-size: 12px;&quot;&gt;&lt;b&gt;&amp;lt;&amp;lt; Satisfy &amp;gt;&amp;gt;&lt;/b&gt;&lt;/font&gt;" style="edgeStyle=none;html=1;endArrow=open;endSize=12;dashed=1;verticalAlign=bottom;rounded=0;strokeWidth=2;" parent="1" source="TKuCa-1dWPl5aqtaTBc1-15" target="nnxOR7MUioTcY6HnBUIz-7" edge="1">
          <mxGeometry x="-0.3459" y="-8" width="160" relative="1" as="geometry">
            <mxPoint x="712.6265060240962" y="495" as="sourcePoint" />
            <mxPoint x="691.7459432048681" y="416" as="targetPoint" />
            <mxPoint as="offset" />
          </mxGeometry>
        </mxCell>
        <mxCell id="REUDDeqgJxIMgfKwqpik-12" value="&lt;font style=&quot;font-size: 12px;&quot;&gt;&lt;b&gt;&amp;lt;&amp;lt; Satisfy &amp;gt;&amp;gt;&lt;/b&gt;&lt;/font&gt;" style="edgeStyle=none;html=1;endArrow=open;endSize=12;dashed=1;verticalAlign=bottom;rounded=0;strokeWidth=2;" parent="1" source="TKuCa-1dWPl5aqtaTBc1-15" target="nnxOR7MUioTcY6HnBUIz-10" edge="1">
          <mxGeometry x="-0.6099" y="-10" width="160" relative="1" as="geometry">
            <mxPoint x="766.2897196261681" y="495" as="sourcePoint" />
            <mxPoint x="701.51" y="452" as="targetPoint" />
            <mxPoint as="offset" />
          </mxGeometry>
        </mxCell>
        <mxCell id="REUDDeqgJxIMgfKwqpik-13" value="&lt;font style=&quot;font-size: 12px;&quot;&gt;&lt;b&gt;&amp;lt;&amp;lt; Satisfy &amp;gt;&amp;gt;&lt;/b&gt;&lt;/font&gt;" style="edgeStyle=none;html=1;endArrow=open;endSize=12;dashed=1;verticalAlign=bottom;rounded=0;strokeWidth=2;" parent="1" source="nnxOR7MUioTcY6HnBUIz-16" target="nnxOR7MUioTcY6HnBUIz-11" edge="1">
          <mxGeometry width="160" relative="1" as="geometry">
            <mxPoint x="1166" y="304.9999999999999" as="sourcePoint" />
            <mxPoint x="1326" y="304.9999999999999" as="targetPoint" />
          </mxGeometry>
        </mxCell>
        <mxCell id="REUDDeqgJxIMgfKwqpik-14" value="&lt;font style=&quot;font-size: 12px;&quot;&gt;&lt;b&gt;&amp;lt;&amp;lt; Refine &amp;gt;&amp;gt;&lt;/b&gt;&lt;/font&gt;" style="edgeStyle=none;html=1;endArrow=open;endSize=12;dashed=1;verticalAlign=bottom;rounded=0;strokeWidth=2;" parent="1" source="REUDDeqgJxIMgfKwqpik-8" target="nnxOR7MUioTcY6HnBUIz-9" edge="1">
          <mxGeometry width="160" relative="1" as="geometry">
            <mxPoint x="1035" y="283" as="sourcePoint" />
            <mxPoint x="1195" y="283" as="targetPoint" />
          </mxGeometry>
        </mxCell>
        <mxCell id="TKuCa-1dWPl5aqtaTBc1-1" value="&lt;font style=&quot;font-size: 12px;&quot;&gt;&lt;b&gt;&amp;lt;&amp;lt; Satisfy &amp;gt;&amp;gt;&lt;/b&gt;&lt;/font&gt;" style="edgeStyle=none;html=1;endArrow=open;endSize=12;dashed=1;verticalAlign=bottom;rounded=0;strokeWidth=2;" parent="1" source="TKuCa-1dWPl5aqtaTBc1-2" target="nnxOR7MUioTcY6HnBUIz-9" edge="1">
          <mxGeometry width="160" relative="1" as="geometry">
            <mxPoint x="727" y="361" as="sourcePoint" />
            <mxPoint x="835" y="349.9999999999999" as="targetPoint" />
          </mxGeometry>
        </mxCell>
        <mxCell id="TKuCa-1dWPl5aqtaTBc1-2" value="&amp;lt;&amp;lt; &lt;b&gt;Block &lt;/b&gt;&amp;gt;&amp;gt;&lt;div&gt;&lt;br&gt;&lt;b&gt;Patient&lt;/b&gt;&lt;/div&gt;" style="shape=rect;html=1;whiteSpace=wrap;align=center;verticalAlign=top;fillColor=#FFF2CC;" parent="1" vertex="1">
          <mxGeometry x="667" y="356" width="120" height="60" as="geometry" />
        </mxCell>
        <mxCell id="TKuCa-1dWPl5aqtaTBc1-3" value="" style="endArrow=circlePlus;html=1;rounded=0;strokeWidth=2;endFill=0;entryX=0.5;entryY=1;entryDx=0;entryDy=0;exitX=0.5;exitY=0;exitDx=0;exitDy=0;edgeStyle=orthogonalEdgeStyle;" parent="1" source="nnxOR7MUioTcY6HnBUIz-4" target="nnxOR7MUioTcY6HnBUIz-1" edge="1">
          <mxGeometry width="50" height="50" relative="1" as="geometry">
            <mxPoint x="644" y="182" as="sourcePoint" />
            <mxPoint x="644" y="123" as="targetPoint" />
          </mxGeometry>
        </mxCell>
        <mxCell id="TKuCa-1dWPl5aqtaTBc1-4" value="" style="endArrow=circlePlus;html=1;rounded=0;strokeWidth=2;endFill=0;entryX=0.5;entryY=1;entryDx=0;entryDy=0;exitX=0.5;exitY=0;exitDx=0;exitDy=0;edgeStyle=orthogonalEdgeStyle;" parent="1" source="nnxOR7MUioTcY6HnBUIz-9" target="nnxOR7MUioTcY6HnBUIz-1" edge="1">
          <mxGeometry width="50" height="50" relative="1" as="geometry">
            <mxPoint x="512" y="193" as="sourcePoint" />
            <mxPoint x="512" y="143" as="targetPoint" />
          </mxGeometry>
        </mxCell>
        <mxCell id="TKuCa-1dWPl5aqtaTBc1-5" value="" style="endArrow=circlePlus;html=1;rounded=0;strokeWidth=2;endFill=0;entryX=0.5;entryY=1;entryDx=0;entryDy=0;exitX=0.5;exitY=0;exitDx=0;exitDy=0;edgeStyle=orthogonalEdgeStyle;" parent="1" source="nnxOR7MUioTcY6HnBUIz-3" target="nnxOR7MUioTcY6HnBUIz-1" edge="1">
          <mxGeometry width="50" height="50" relative="1" as="geometry">
            <mxPoint x="463" y="188" as="sourcePoint" />
            <mxPoint x="195" y="138" as="targetPoint" />
          </mxGeometry>
        </mxCell>
        <mxCell id="TKuCa-1dWPl5aqtaTBc1-6" value="" style="endArrow=circlePlus;html=1;rounded=0;strokeWidth=2;endFill=0;entryX=0.5;entryY=1;entryDx=0;entryDy=0;exitX=0.5;exitY=0;exitDx=0;exitDy=0;edgeStyle=orthogonalEdgeStyle;" parent="1" source="nnxOR7MUioTcY6HnBUIz-10" target="nnxOR7MUioTcY6HnBUIz-1" edge="1">
          <mxGeometry width="50" height="50" relative="1" as="geometry">
            <mxPoint x="737" y="200" as="sourcePoint" />
            <mxPoint x="469" y="150" as="targetPoint" />
          </mxGeometry>
        </mxCell>
        <mxCell id="TKuCa-1dWPl5aqtaTBc1-7" value="" style="endArrow=circlePlus;html=1;rounded=0;strokeWidth=2;endFill=0;entryX=0.5;entryY=1;entryDx=0;entryDy=0;exitX=0.5;exitY=0;exitDx=0;exitDy=0;edgeStyle=orthogonalEdgeStyle;" parent="1" source="nnxOR7MUioTcY6HnBUIz-11" target="nnxOR7MUioTcY6HnBUIz-1" edge="1">
          <mxGeometry width="50" height="50" relative="1" as="geometry">
            <mxPoint x="970" y="200" as="sourcePoint" />
            <mxPoint x="469" y="150" as="targetPoint" />
          </mxGeometry>
        </mxCell>
        <mxCell id="TKuCa-1dWPl5aqtaTBc1-8" value="" style="endArrow=circlePlus;html=1;rounded=0;strokeWidth=2;endFill=0;entryX=0.5;entryY=1;entryDx=0;entryDy=0;exitX=0.5;exitY=0;exitDx=0;exitDy=0;edgeStyle=orthogonalEdgeStyle;" parent="1" source="nnxOR7MUioTcY6HnBUIz-8" target="nnxOR7MUioTcY6HnBUIz-6" edge="1">
          <mxGeometry width="50" height="50" relative="1" as="geometry">
            <mxPoint x="-56" y="461.75" as="sourcePoint" />
            <mxPoint x="254" y="411.75" as="targetPoint" />
          </mxGeometry>
        </mxCell>
        <mxCell id="TKuCa-1dWPl5aqtaTBc1-9" value="" style="endArrow=circlePlus;html=1;rounded=0;strokeWidth=2;endFill=0;entryX=0.5;entryY=1;entryDx=0;entryDy=0;exitX=0.5;exitY=0;exitDx=0;exitDy=0;edgeStyle=orthogonalEdgeStyle;" parent="1" source="nnxOR7MUioTcY6HnBUIz-6" target="nnxOR7MUioTcY6HnBUIz-4" edge="1">
          <mxGeometry width="50" height="50" relative="1" as="geometry">
            <mxPoint x="330" y="495" as="sourcePoint" />
            <mxPoint x="330" y="440" as="targetPoint" />
          </mxGeometry>
        </mxCell>
        <mxCell id="TKuCa-1dWPl5aqtaTBc1-10" value="" style="endArrow=circlePlus;html=1;rounded=0;strokeWidth=2;endFill=0;entryX=0.5;entryY=1;entryDx=0;entryDy=0;exitX=0.5;exitY=0;exitDx=0;exitDy=0;edgeStyle=orthogonalEdgeStyle;" parent="1" source="nnxOR7MUioTcY6HnBUIz-7" target="nnxOR7MUioTcY6HnBUIz-4" edge="1">
          <mxGeometry width="50" height="50" relative="1" as="geometry">
            <mxPoint x="330" y="340" as="sourcePoint" />
            <mxPoint x="469" y="300" as="targetPoint" />
          </mxGeometry>
        </mxCell>
        <mxCell id="TKuCa-1dWPl5aqtaTBc1-13" value="&lt;font style=&quot;font-size: 12px;&quot;&gt;&lt;b&gt;&amp;lt;&amp;lt; Satisfy &amp;gt;&amp;gt;&lt;/b&gt;&lt;/font&gt;" style="edgeStyle=none;html=1;endArrow=open;endSize=12;dashed=1;verticalAlign=bottom;rounded=0;strokeWidth=2;" parent="1" source="GlkqnVBeI32GuJ0cnk9J-1" target="nnxOR7MUioTcY6HnBUIz-3" edge="1">
          <mxGeometry width="160" relative="1" as="geometry">
            <mxPoint x="70" y="235.9999999999999" as="sourcePoint" />
            <mxPoint x="230" y="235.9999999999999" as="targetPoint" />
          </mxGeometry>
        </mxCell>
        <mxCell id="TKuCa-1dWPl5aqtaTBc1-14" value="&lt;font style=&quot;font-size: 12px;&quot;&gt;&lt;b&gt;&amp;lt;&amp;lt; Satisfy &amp;gt;&amp;gt;&lt;/b&gt;&lt;/font&gt;" style="edgeStyle=none;html=1;endArrow=open;endSize=12;dashed=1;verticalAlign=bottom;rounded=0;strokeWidth=2;" parent="1" source="REUDDeqgJxIMgfKwqpik-4" target="nnxOR7MUioTcY6HnBUIz-3" edge="1">
          <mxGeometry width="160" relative="1" as="geometry">
            <mxPoint x="-64" y="207" as="sourcePoint" />
            <mxPoint x="59" y="231" as="targetPoint" />
          </mxGeometry>
        </mxCell>
        <mxCell id="TKuCa-1dWPl5aqtaTBc1-15" value="&amp;lt;&amp;lt; &lt;b&gt;Block &lt;/b&gt;&amp;gt;&amp;gt;&lt;div&gt;&lt;br&gt;&lt;b&gt;Message controller&lt;/b&gt;&lt;/div&gt;" style="shape=rect;html=1;whiteSpace=wrap;align=center;verticalAlign=top;fillColor=#FFF2CC;" parent="1" vertex="1">
          <mxGeometry x="654" y="510" width="120" height="60" as="geometry" />
        </mxCell>
      </root>
    </mxGraphModel>
  </diagram>
</mxfile>
